# xmcd
#
# Track frame offsets: 
#        150
#        19870
#        36261
#        50162
#        67587
#        83512
#        96257
#        111631
#        126692
#        143986
#        157748
#        173428
#        189488
#
# Disc length: 2807 seconds
#
# Revision: 3
# Processed by: cddbd v1.5.1PL0 Copyright (c) Steve Scherf et al.
# Submitted via: ExactAudioCopy v0.95a5
#
DISCID=ad0af50d
DTITLE=Dierks Bentley - Dierks Bentley
DYEAR=2003
DGENRE=Country
TTITLE0=What Was I Thinkin'
TTITLE1=Wish It Would Break
TTITLE2=Forget About You
TTITLE3=I Can Only Think Of One
TTITLE4=My Last Name
TTITLE5=Bartenders, Etc
TTITLE6=Is Anybody Loving You These D
TTITLE7=My Love Will Follow You
TTITLE8=How Am I Doin'
TTITLE9=Distant Shore
TTITLE10=I Bought The Shoes
TTITLE11=Whiskey Tears
TTITLE12=Train Travelin' (With The Del
EXTD=
EXTT0=
EXTT1=
EXTT2=
EXTT3=
EXTT4=
EXTT5=
EXTT6=
EXTT7=
EXTT8=
EXTT9=
EXTT10=
EXTT11=
EXTT12=
PLAYORDER=
